<?xml version="1.0" encoding="UTF-8"?>
<svg version="1.1" xmlns="http://www.w3.org/2000/svg" width="2001" height="810">
<path d="M0 0 C17.95903842 6.31617237 34.51578641 16.56104277 50.79785156 26.24707031 C78.47085114 42.69524565 106.36716442 58.57444459 135.0625 73.1875 C135.87605957 73.60257812 136.68961914 74.01765625 137.52783203 74.4453125 C141.42499921 76.42900961 145.33379976 78.38603923 149.26269531 80.30615234 C150.46201478 80.89344796 151.65929683 81.48492272 152.85449219 82.08056641 C218.29308446 114.62479943 291.08278524 133.18536689 364.0625 135.1875 C364.87734863 135.21086426 365.69219727 135.23422852 366.53173828 135.25830078 C447.17649245 137.22847646 528.5841795 118.18795972 611.10498047 84.44189453 C613.16672225 83.56743281 615.23106316 82.6990847 617.29736328 81.83544922 C639.64481716 72.48551663 661.37182088 61.96123385 683.0625 51.1875 C684.21144745 50.61690857 684.21144745 50.61690857 685.38360596 50.03479004 C692.88745451 46.30609718 700.38372741 42.56245891 707.87109375 38.80078125 C709.03576172 38.21586914 710.20042969 37.63095703 711.40039062 37.02832031 C713.30858568 36.06966707 715.21624471 35.10998097 717.12304688 34.14855957 C719.24659633 33.07791241 721.37128544 32.00955246 723.49609375 30.94140625 C724.13912949 30.61634598 724.78216522 30.29128571 725.44468689 29.95637512 C748.35548136 18.45489482 748.35548136 18.45489482 758.0625 19.1875 C761.0625 21.1875 761.0625 21.1875 761.53125 23.3671875 C761.90280893 55.41414483 725.29287825 90.46871447 704.73828125 112.39404297 C702.90067005 114.36069388 701.07510297 116.33814459 699.25 118.31640625 C697.93773578 119.73198944 696.62523889 121.14735699 695.3125 122.5625 C694.71083008 123.21645752 694.10916016 123.87041504 693.48925781 124.54418945 C689.80972758 128.49279414 685.96645014 132.10245884 681.87011719 135.61572266 C679.65797204 137.53924919 677.60322126 139.58398732 675.5625 141.6875 C671.55482849 145.73599668 667.39434691 149.4920513 663.0625 153.1875 C662.02156143 154.09178762 660.98124817 154.99679531 659.94140625 155.90234375 C651.84598006 162.930431 643.57356791 169.67010921 635.0625 176.1875 C634.33321289 176.74808105 633.60392578 177.30866211 632.85253906 177.88623047 C600.57947071 202.6253318 566.33323175 223.84183316 530.0625 242.1875 C529.16402344 242.64479492 528.26554687 243.10208984 527.33984375 243.57324219 C462.24927081 276.47382655 389.09444354 294.37976529 316.1875 294.4375 C314.681306 294.43950912 314.681306 294.43950912 313.14468384 294.44155884 C294.95725393 294.43633117 277.10814045 293.43732452 259.0625 291.1875 C257.77835205 291.04320557 257.77835205 291.04320557 256.46826172 290.89599609 C234.1062817 288.32303588 212.26499754 278.68298449 192.0625 269.1875 C191.08716309 268.73004395 190.11182617 268.27258789 189.10693359 267.80126953 C167.536512 257.57926887 147.22428653 245.41935673 128.0625 231.1875 C127.34868164 230.65769531 126.63486328 230.12789062 125.89941406 229.58203125 C113.02622658 219.97704776 100.77073821 209.82768732 89.01171875 198.890625 C86.79744603 196.83772562 84.52932471 194.85800116 82.2421875 192.88671875 C77.80913245 189.02189646 73.64607536 184.91858799 69.5 180.75 C68.78392578 180.03779297 68.06785156 179.32558594 67.33007812 178.59179688 C63.25347077 174.50777076 59.35483802 170.32516622 55.58813477 165.95385742 C53.70985636 163.7792144 51.76206224 161.67324652 49.8125 159.5625 C44.72775398 153.92618831 40.09728625 147.97635375 35.45654297 141.97558594 C34.12300511 140.2651076 32.77123646 138.57141999 31.41015625 136.8828125 C19.49491744 122.05574054 8.8666053 106.38851277 -0.83447266 90.03515625 C-1.76180187 88.48180797 -2.71225419 86.94229688 -3.66796875 85.40625 C-16.94962475 64.0416559 -32.43302216 34.08025673 -28.9375 8.1875 C-27.73745548 4.30650496 -26.00198446 1.95436702 -22.66015625 -0.453125 C-15.64190988 -3.95721357 -7.21420637 -2.19701744 0 0 Z " fill="#8C73D2" transform="translate(624.9375,1.8125)"/>
<path d="M0 0 C2.83032872 -0.07380196 5.65969642 -0.12174282 8.49072266 -0.15869141 C9.33940918 -0.1800415 10.1880957 -0.2013916 11.0625 -0.22338867 C17.17605411 -0.25714148 21.78594015 0.66745393 26.75634766 4.50146484 C32.02410754 10.62306493 35.98109532 17.54765176 40.11572266 24.45458984 C42.5457251 28.49769677 45.09503664 32.43685817 47.74072266 36.34130859 C51.8493463 42.41988826 55.81384906 48.58133395 59.74072266 54.77880859 C64.22082395 61.8476548 68.73036003 68.89459054 73.30322266 75.90380859 C78.25993612 83.50344076 83.16746983 91.13336657 88.05322266 98.77880859 C94.31140505 108.57161596 100.60205824 118.34231538 106.92822266 128.09130859 C113.2952487 137.90327198 119.62739131 147.73667267 125.92822266 157.59130859 C132.22939547 167.44572454 138.55636926 177.28246363 144.92822266 187.09130859 C145.49798828 187.96851563 146.06775391 188.84572266 146.65478516 189.74951172 C150.41075573 195.53130897 154.16864894 201.31185367 157.92822266 207.09130859 C162.72255084 200.36206193 167.27618423 193.51998679 171.67822266 186.52880859 C172.91206796 184.57925451 174.14644816 182.63003885 175.38134766 180.68115234 C175.98398438 179.72966309 176.58662109 178.77817383 177.20751953 177.79785156 C179.59180062 174.04754791 182.00649293 170.31749879 184.42822266 166.59130859 C188.63348033 160.11561762 192.78862941 153.60915627 196.92822266 147.09130859 C201.49989292 139.89314958 206.10079737 132.71574101 210.74462891 125.56396484 C214.50690012 119.76151156 218.22066321 113.92883843 221.92822266 108.09130859 C226.02785804 101.63711558 230.14067973 95.19262685 234.30322266 88.77880859 C241.56691089 77.58518518 248.74117095 66.33422087 255.92822266 55.09130859 C261.25713426 46.75513847 266.58848406 38.42054872 271.92822266 30.09130859 C272.47414063 29.23939941 273.02005859 28.38749023 273.58251953 27.50976562 C276.30452116 23.26629209 279.04112591 19.03327542 281.80566406 14.81738281 C282.85638042 13.20177502 283.88345024 11.57085759 284.90869141 9.93896484 C285.49263672 9.04048828 286.07658203 8.14201172 286.67822266 7.21630859 C287.14744141 6.47638672 287.61666016 5.73646484 288.10009766 4.97412109 C291.87418041 1.08713842 296.4126887 -0.06817619 301.66674805 -0.296875 C303.45302054 -0.31649346 305.23953868 -0.31908258 307.02587891 -0.30712891 C307.97837021 -0.30999908 308.93086151 -0.31286926 309.91221619 -0.31582642 C311.91666258 -0.31785935 313.92112916 -0.31238364 315.92553711 -0.29980469 C318.98482762 -0.2837224 322.04280068 -0.29968896 325.10205078 -0.31884766 C327.05582972 -0.31686544 329.00960785 -0.3130222 330.96337891 -0.30712891 C331.8728981 -0.3132016 332.7824173 -0.31927429 333.71949768 -0.32553101 C339.58470101 -0.26087734 344.06007013 0.47522648 348.57275391 4.59130859 C351.78877052 8.72157742 353.05281962 11.48881252 353.0552063 16.67297363 C353.05943981 18.096853 353.05943981 18.096853 353.06375885 19.5494976 C353.0617321 20.59776789 353.05970535 21.64603817 353.05761719 22.72607422 C353.05934685 23.8423073 353.06107651 24.95854038 353.06285858 26.10859871 C353.06727609 29.90493297 353.0642295 33.70122358 353.06103516 37.49755859 C353.06142957 39.55204292 353.06256081 41.60652592 353.063784 43.66100991 C353.0682382 51.21759921 353.06510516 58.77417002 353.0587877 66.33075726 C353.0541206 71.97426906 353.05173466 77.61777797 353.05053711 83.2612915 C353.02554206 182.53867231 352.44482363 281.81552988 351.92822266 381.09130859 C341.12364181 381.11443172 330.3190668 381.13222352 319.51446629 381.14312077 C314.49799796 381.14834966 309.4815465 381.15544742 304.46508789 381.16674805 C299.62812572 381.1775767 294.79117982 381.18358538 289.95420647 381.18618584 C288.10453981 381.18804013 286.25487408 381.19166081 284.40521431 381.19703865 C281.82375252 381.20424879 279.24235884 381.20529955 276.66088867 381.20483398 C275.88837265 381.20842926 275.11585663 381.21202454 274.31993103 381.21572876 C269.04227482 381.20536076 269.04227482 381.20536076 267.92822266 380.09130859 C267.81800779 377.44881925 267.77325766 374.83190406 267.77000427 372.1884613 C267.7650663 371.35047864 267.76012832 370.51249599 267.75504071 369.64911991 C267.73958705 366.81922333 267.73128392 363.98934956 267.72290039 361.15942383 C267.71332804 359.1395955 267.70331835 357.11976921 267.69290161 355.09994507 C267.66577679 349.59812657 267.64480839 344.09629942 267.62489963 338.59445071 C267.60308664 332.85153027 267.5756751 327.10863671 267.54884338 321.36573792 C267.4988529 310.48245914 267.45393774 299.5991655 267.41082102 288.71585757 C267.36150284 276.32911155 267.30656468 263.94239249 267.25114143 251.55567253 C267.13722386 226.06757635 267.03040622 200.57945433 266.92822266 175.09130859 C265.3385221 177.47039266 263.74951278 179.84993362 262.16088867 182.22973633 C261.49224667 183.23017094 261.49224667 183.23017094 260.81009674 184.25081635 C257.0830687 189.83585659 253.45113816 195.47681301 249.86572266 201.15380859 C248.65895152 203.05761933 247.45192078 204.96126554 246.24462891 206.86474609 C245.67373535 207.76547852 245.1028418 208.66621094 244.51464844 209.59423828 C242.45798271 212.83147699 240.38253276 216.05606662 238.30322266 219.27880859 C234.85303527 224.63298828 231.44814215 230.01444115 228.05322266 235.40380859 C223.86700129 242.04658735 219.63875805 248.65944374 215.36108398 255.24365234 C210.45234255 262.80602678 205.60460751 270.40735396 200.76123047 278.01171875 C199.47193185 280.03140341 198.1647001 282.03975466 196.83959961 284.03613281 C194.85586804 287.0804949 194.85586804 287.0804949 193.30395508 290.47851562 C189.23420422 298.28055681 189.23420422 298.28055681 185.10360718 299.7328186 C179.64367106 300.77869945 174.14423355 300.52253609 168.61572266 300.34130859 C166.98229025 300.32930403 165.34880825 300.32275714 163.71533203 300.32177734 C160.44423239 300.31252757 157.17878957 300.25577753 153.90893555 300.16699219 C150.47697749 300.08641405 147.07839104 300.13948361 143.64868164 300.28515625 C142.79043289 300.31317322 141.93218414 300.34119019 141.04792786 300.37005615 C139.41403487 300.42744027 137.78073625 300.50845285 136.14945984 300.61724854 C130.81749995 300.76831183 130.81749995 300.76831183 128.2930603 298.84646606 C125.86150456 296.1344045 123.94489394 293.13200371 122.38916016 289.84912109 C119.57268175 284.25193666 116.15102113 279.09033118 112.74072266 273.84130859 C111.59877269 272.04610199 110.45939519 270.2492561 109.32275391 268.45068359 C104.42279807 260.71185317 99.51069773 252.98093941 94.55322266 245.27880859 C93.78498635 244.08480277 93.0167574 242.89079222 92.24853516 241.69677734 C91.8647168 241.1004248 91.48089844 240.50407227 91.08544922 239.88964844 C88.82123557 236.37104132 86.5590486 232.85113053 84.29711914 229.33105469 C82.46159447 226.4749133 80.62419072 223.6200314 78.78369141 220.76708984 C74.04399863 213.41702254 69.35359873 206.03730824 64.7043457 198.62963867 C59.52390318 190.39739174 54.21400667 182.26024752 48.92822266 174.09130859 C48.59822266 242.40130859 48.26822266 310.71130859 47.92822266 381.09130859 C20.53822266 381.09130859 -6.85177734 381.09130859 -35.07177734 381.09130859 C-36.86461555 379.29847039 -36.20539232 376.61427195 -36.21158504 374.19376945 C-36.21727629 372.90375554 -36.22296753 371.61374162 -36.22883123 370.28463638 C-36.23012408 368.83427875 -36.23131206 367.38392102 -36.23240662 365.93356323 C-36.2371338 364.40738676 -36.24228418 362.88121155 -36.24782425 361.35503781 C-36.26177706 357.14083044 -36.26932712 352.92663174 -36.27579725 348.71240711 C-36.28215461 345.1027277 -36.29222666 341.49306264 -36.3023579 337.88339214 C-36.33573388 325.98682721 -36.35721405 314.09025355 -36.37555775 302.1936571 C-36.38035014 299.09703258 -36.38533379 296.00040842 -36.39036298 292.90378428 C-36.42133398 273.68742401 -36.44802888 254.47106078 -36.46478176 235.25468254 C-36.46873149 230.80048492 -36.47273444 226.34628735 -36.47680664 221.89208984 C-36.477815 220.78497344 -36.47882336 219.67785703 -36.47986228 218.53719164 C-36.49687095 200.6005381 -36.53797967 182.66402248 -36.58882963 164.72743629 C-36.64057197 146.32511928 -36.66971968 127.92287325 -36.67697865 109.52048409 C-36.68164547 99.18307054 -36.69644419 88.84588275 -36.73672295 78.50854111 C-36.77098395 69.70473037 -36.7849783 60.90118609 -36.77229881 52.0973125 C-36.76646245 47.60418104 -36.77040392 43.11161337 -36.80046844 38.61856651 C-36.82776899 34.50505179 -36.82737988 30.39250302 -36.80495799 26.2789674 C-36.8017272 24.79098141 -36.80864942 23.30293147 -36.82675522 21.81505214 C-36.96958172 9.32036664 -36.96958172 9.32036664 -33.21376133 4.72133064 C-29.91358701 1.49823207 -26.76610303 0.96754784 -22.26708984 0.77490234 C-20.81774048 0.71157715 -20.81774048 0.71157715 -19.33911133 0.64697266 C-18.30214111 0.60797852 -17.2651709 0.56898438 -16.19677734 0.52880859 C-15.13209229 0.48852539 -14.06740723 0.44824219 -12.97045898 0.40673828 C-8.64742865 0.25418713 -4.32379391 0.12852479 0 0 Z " fill="#A386F5" transform="translate(36.07177734375,422.90869140625)"/>
<path d="M0 0 C0.82683289 0.00182281 1.65366577 0.00364563 2.5055542 0.00552368 C49.87106752 0.18057981 96.17083972 15.02495408 132.375 46.3125 C133.17808594 47.00601563 133.98117187 47.69953125 134.80859375 48.4140625 C137.36917878 50.6750471 139.87892924 52.98054399 142.375 55.3125 C143.23867187 56.11042969 144.10234375 56.90835938 144.9921875 57.73046875 C180.27058262 91.52614871 199.50846207 140.88910961 200.55859375 189.2734375 C201.23829676 241.24352945 186.50074853 288.53232297 152.375 328.3125 C151.53453125 329.29605469 150.6940625 330.27960938 149.828125 331.29296875 C145.3340253 336.41469272 140.60847758 340.9605479 135.375 345.3125 C134.50359375 346.07175781 133.6321875 346.83101562 132.734375 347.61328125 C95.96333499 379.2226111 49.97616359 393.77881377 2 393.6875 C0.39528336 393.68668427 0.39528336 393.68668427 -1.24185181 393.68585205 C-16.73134401 393.64957316 -31.55156067 393.19841314 -46.625 389.3125 C-47.94395264 388.99104004 -47.94395264 388.99104004 -49.28955078 388.66308594 C-83.82383324 380.12735935 -114.48376283 363.2360971 -140.19287109 338.67724609 C-141.57199053 337.36301533 -142.96735213 336.06589339 -144.36328125 334.76953125 C-156.05324231 323.58709383 -165.67599452 310.37107167 -173.625 296.3125 C-173.98013672 295.69503906 -174.33527344 295.07757812 -174.70117188 294.44140625 C-191.91663515 264.30688649 -199.07269985 231.4254992 -199 196.9375 C-198.99945618 195.9665036 -198.99891235 194.9955072 -198.99835205 193.99508667 C-198.95918891 178.7698693 -198.23976253 164.17047662 -194.625 149.3125 C-194.40005859 148.38518066 -194.17511719 147.45786133 -193.94335938 146.50244141 C-185.19720991 111.6322904 -167.25193594 82.22330463 -142.625 56.3125 C-142.04621094 55.68085938 -141.46742187 55.04921875 -140.87109375 54.3984375 C-105.34763928 16.82726511 -50.43885191 -0.23252811 0 0 Z M-41.125 84.9375 C-41.81803223 85.18910889 -42.51106445 85.44071777 -43.22509766 85.69995117 C-55.70188224 90.43909644 -66.75597122 97.33476282 -76.625 106.3125 C-77.31722656 106.92351562 -78.00945312 107.53453125 -78.72265625 108.1640625 C-100.03289277 128.07621193 -110.42432935 158.49575406 -111.75097656 187.02124023 C-112.77900452 224.05952606 -104.22323764 257.66790527 -78.625 285.3125 C-58.78135251 305.78610455 -29.97529284 314.93024599 -2.0559082 315.59790039 C29.82726694 315.92018729 57.98503966 306.08084981 81.125 284 C106.1360387 258.08144901 113.16667065 224.26900404 112.69410706 189.48493958 C112.51611116 180.15937224 111.97001631 171.3135607 109.375 162.3125 C109.14393555 161.49571777 108.91287109 160.67893555 108.67480469 159.83740234 C100.0684707 130.24568668 83.72885487 106.62144641 56.546875 91.28076172 C39.9466267 82.29948608 21.90158093 79.12084781 3.19946289 79.07226562 C0.97437698 79.06265921 -1.24974334 79.03162497 -3.47460938 79 C-16.35640882 78.90402056 -28.96301439 80.45450216 -41.125 84.9375 Z " fill="#735DAD" transform="translate(1800.625,416.6875)"/>
<path d="M0 0 C0.88207969 -0.00583219 1.76415937 -0.01166439 2.67296875 -0.01767331 C3.63774363 -0.01389399 4.60251852 -0.01011467 5.59652901 -0.00622082 C7.13888826 -0.01195914 7.13888826 -0.01195914 8.71240628 -0.01781338 C12.16855252 -0.02815769 15.62453307 -0.02414847 19.08069038 -0.02018261 C21.5542739 -0.0245283 24.02785607 -0.02971097 26.50143623 -0.03567028 C32.52948308 -0.04769276 38.55746445 -0.05020974 44.58551727 -0.04787002 C49.48526147 -0.04608765 54.38499214 -0.04783476 59.28473473 -0.05209446 C59.98185146 -0.05268965 60.6789682 -0.05328484 61.39720968 -0.05389806 C62.81337316 -0.05510981 64.22953664 -0.05632394 65.64570011 -0.05754044 C78.93023909 -0.06841989 92.21475269 -0.06625167 105.4992931 -0.06015559 C117.65208716 -0.05498704 129.80480104 -0.06623951 141.95757924 -0.08525381 C154.43533937 -0.10462694 166.91306156 -0.11288908 179.39083683 -0.10913056 C186.39641782 -0.10721759 193.40193059 -0.10971531 200.40749931 -0.1238451 C206.99515956 -0.13699744 213.58268573 -0.13450598 220.17035484 -0.12143421 C222.58989961 -0.11906268 225.00945559 -0.12182363 227.4289875 -0.13005733 C230.72867496 -0.14047755 234.02781842 -0.13246168 237.32748604 -0.11974621 C238.28779948 -0.12712049 239.24811292 -0.13449478 240.23752677 -0.14209253 C246.32363054 -0.09266166 250.89445612 0.61880844 255.43774605 5.06284046 C256.94878588 7.93941986 256.98354959 10.07470713 257.00891304 13.3206377 C257.02482491 14.54548374 257.04073677 15.77032978 257.05713081 17.03229237 C257.05743294 19.01205822 257.05743294 19.01205822 257.05774117 21.03181934 C257.06484521 22.40418273 257.07254457 23.77654316 257.08081245 25.14890003 C257.09424798 28.02296171 257.09583037 30.89674875 257.08996773 33.77083302 C257.08407199 37.44764031 257.1146593 41.12312693 257.15508461 44.7996788 C257.18097899 47.63337732 257.18383758 50.46675853 257.18019295 53.30055904 C257.18270214 55.31301721 257.2073883 57.32540829 257.23242378 59.33771229 C257.15550498 69.48837183 257.15550498 69.48837183 254.23938179 72.56136036 C249.87225284 75.35115764 246.60454169 75.37833656 241.50862312 75.37473011 C240.42059506 75.37601175 240.42059506 75.37601175 239.31058663 75.37731928 C236.87382221 75.37896976 234.43712623 75.37345974 232.00036812 75.36800098 C230.25610544 75.36771899 228.51184264 75.36787708 226.76758003 75.36844349 C222.02616301 75.368731 217.28477116 75.36284172 212.54335999 75.35586953 C207.59056936 75.34962832 202.63777817 75.34903158 197.68498421 75.34784412 C188.3033888 75.34473308 178.92180501 75.33652273 169.54021472 75.32649463 C158.86078522 75.31532647 148.18135518 75.30982127 137.5019213 75.3047992 C115.53093665 75.29433994 93.55996795 75.27599726 71.58899117 75.25447559 C71.58899117 100.33447559 71.58899117 125.41447559 71.58899117 151.25447559 C89.63715523 151.20226856 89.63715523 151.20226856 108.04992867 151.14900684 C115.65149308 151.13368664 123.25304637 151.11912154 130.85461617 151.10799122 C142.93245435 151.09016509 155.01022992 151.06916811 167.0880146 151.02815723 C175.88278041 150.99830822 184.67749561 150.97891331 193.47231066 150.97221011 C198.13154147 150.96829019 202.79062743 150.95904185 207.44981194 150.93728542 C211.83117374 150.9169912 216.21233041 150.91062738 220.59373474 150.91515255 C222.20546329 150.91432417 223.81719838 150.90831653 225.42888641 150.89685917 C227.62235211 150.88202502 229.81503407 150.88548796 232.00851631 150.89371204 C233.85302407 150.88956398 233.85302407 150.88956398 235.73479462 150.88533211 C236.67667948 151.00714946 237.61856434 151.12896681 238.58899117 151.25447559 C240.96497375 154.81844947 240.84680009 156.37570924 240.86364937 160.60603809 C240.87318138 161.91749805 240.88271339 163.22895802 240.89253426 164.58015919 C240.89227286 166.01326493 240.89133594 167.44637068 240.88977242 168.87947559 C240.89365909 170.34773855 240.8979937 171.81600038 240.90275764 173.28426075 C240.91021896 176.360958 240.90992896 179.43754049 240.90466499 182.51424122 C240.89886589 186.45885085 240.91581194 190.40299161 240.93900967 194.34752369 C240.95373287 197.37925943 240.95462074 200.41088182 240.95149994 203.44264698 C240.95201372 204.89712421 240.95726212 206.3516077 240.96731186 207.8060503 C240.97963215 209.83830154 240.97095788 211.87064743 240.96130562 213.90291309 C240.96193504 215.05968555 240.96256447 216.21645802 240.96321297 217.40828419 C240.58899117 220.25447559 240.58899117 220.25447559 239.48202515 221.90981483 C236.65365485 223.91886411 234.36999972 223.62303637 230.92622566 223.61523914 C229.90557621 223.61908406 229.90557621 223.61908406 228.86430758 223.62300664 C226.57934355 223.62795665 224.29503712 223.61143233 222.01013374 223.59505177 C220.37424421 223.59420575 218.73835354 223.59468013 217.10246468 223.59637928 C212.65640378 223.59724167 208.21058462 223.57957659 203.76458001 223.55865741 C199.12009986 223.53993113 194.47561445 223.53814337 189.83110237 223.53458118 C181.03382243 223.5252488 172.23665404 223.50061888 163.43942326 223.47053272 C151.55331942 223.43076324 139.66718518 223.41454348 127.78103161 223.39702606 C109.05026787 223.36879862 90.31973956 223.30903706 71.58899117 223.25447559 C71.58899117 250.64447559 71.58899117 278.03447559 71.58899117 306.25447559 C84.74129585 306.19646778 97.89360054 306.13845997 111.44445992 306.07869434 C119.76152209 306.05315593 128.07855595 306.02888022 136.39563179 306.01033497 C149.60577259 305.98064312 162.81575418 305.9456995 176.02575874 305.87727833 C185.64567965 305.82747569 195.26547165 305.79519223 204.8855179 305.78403312 C209.98033657 305.77750907 215.07478642 305.76215371 220.169487 305.72582531 C224.96379173 305.69191553 229.75757534 305.68141251 234.5519886 305.68893719 C236.31244233 305.68756039 238.07291329 305.67759793 239.8332634 305.65844822 C242.2362609 305.6335874 244.63728828 305.63954333 247.04033089 305.65320301 C247.73781022 305.6386388 248.43528955 305.6240746 249.15390462 305.60906905 C254.8972066 305.69738307 255.00574608 306.6712305 259.58899117 311.25447559 C259.58899117 334.35447559 259.58899117 357.45447559 259.58899117 381.25447559 C169.49899117 381.25447559 79.40899117 381.25447559 -13.41100883 381.25447559 C-13.61266558 287.89188377 -13.61266558 287.89188377 -13.65514946 248.95760059 C-13.66493914 240.04549075 -13.67504164 231.13338135 -13.68566704 222.22127247 C-13.68698578 221.10425221 -13.68830453 219.98723196 -13.68966323 218.8363626 C-13.7114223 200.79219124 -13.75084825 182.74809938 -13.79677282 164.70397519 C-13.84349568 146.19208803 -13.87129541 127.68024255 -13.88145131 109.16829884 C-13.88831911 97.74122631 -13.91002675 86.31437837 -13.95059117 74.88737495 C-13.97697805 67.05627548 -13.98501903 59.22529246 -13.97851572 51.39415173 C-13.97530651 46.87285935 -13.98029844 42.35195999 -14.00703621 37.83073711 C-14.03132983 33.69266817 -14.0326221 29.55525733 -14.01550331 25.41715838 C-14.01338693 23.91906716 -14.01976295 22.42093523 -14.03542475 20.92292438 C-14.15944449 8.32995829 -14.15944449 8.32995829 -11.1234293 4.4493475 C-7.39948583 1.43595817 -4.81440502 0.00548544 0 0 Z " fill="#836BC5" transform="translate(1153.4110088348389,422.7455244064331)"/>
<path d="M0 0 C1.19521774 -0.01283524 2.39043549 -0.02567047 3.62187195 -0.03889465 C4.91559219 -0.04628159 6.20931244 -0.05366852 7.54223633 -0.0612793 C8.53261115 -0.06739259 8.53261115 -0.06739259 9.54299355 -0.07362938 C13.04054066 -0.09447526 16.53804877 -0.10878099 20.03564453 -0.11816406 C23.63234932 -0.12920063 27.22843068 -0.16357168 30.82491589 -0.20333576 C33.6037758 -0.22960074 36.38248969 -0.23786476 39.16146278 -0.24144554 C41.12670866 -0.24863111 43.09185432 -0.27503078 45.05693054 -0.30183411 C58.44032298 -0.26950156 58.44032298 -0.26950156 63.18676758 4.17700195 C67.09453811 9.83571343 67.76198526 13.92804045 67.68556213 20.71873474 C67.69094669 21.66081081 67.69633124 22.60288688 67.70187896 23.57351071 C67.71512119 26.7208237 67.70001902 29.86735275 67.68505859 33.01464844 C67.68888289 35.27540952 67.69450287 37.53616818 67.70178223 39.79692078 C67.71373094 44.66252527 67.71324438 49.52791396 67.70318794 54.39352226 C67.68761184 62.09828813 67.70131807 69.80283301 67.71922302 77.50758362 C67.74147679 88.32082738 67.75196797 99.13400073 67.75097656 109.94726562 C67.75088908 110.97576635 67.75088908 110.97576635 67.75079983 112.02504487 C67.75053405 114.80230052 67.75021679 117.57955617 67.74983657 120.35681182 C67.74887221 127.9823413 67.75019554 135.60786941 67.75292969 143.23339844 C67.75316958 143.9154959 67.75340947 144.59759336 67.75365663 145.30036043 C67.75807844 156.71380888 67.77446246 168.12720697 67.79815048 179.54063278 C67.81302701 187.18745962 67.8128556 194.83409008 67.80067265 202.48091972 C67.79593566 207.2573744 67.80352224 212.0337552 67.81421661 216.81019783 C67.8166071 219.01107464 67.81394338 221.21196421 67.80560875 223.41282654 C67.71947438 247.62303491 70.6975218 269.83697963 87.87426758 288.42700195 C104.5452084 304.0885694 125.02404589 307.84806833 146.96411133 307.4855957 C164.34581089 306.85310445 180.2138079 300.34078469 192.56176758 288.0012207 C205.70288392 273.8627875 211.34766651 256.5038441 211.32479858 237.4540863 C211.32761986 236.49270392 211.33044114 235.53132154 211.33334792 234.54080635 C211.34166124 231.3289538 211.34302934 228.11713586 211.34448242 224.90527344 C211.34915287 222.59873356 211.35429682 220.29219459 211.35987854 217.98565674 C211.37114242 213.02351913 211.37958467 208.06138747 211.38599777 203.09924126 C211.39668848 195.25445704 211.41693453 187.40971576 211.43911743 179.56495667 C211.44659599 176.87845148 211.45400984 174.19194613 211.4614048 171.50544071 C211.46418065 170.49853691 211.46418065 170.49853691 211.46701258 169.47129161 C211.48791697 161.83942634 211.50675772 154.20755647 211.5246582 146.57568359 C211.52629639 145.8784215 211.52793457 145.1811594 211.52962239 144.46276814 C211.55592882 133.1540855 211.57456309 121.84539961 211.59125011 110.53669929 C211.60867177 98.91762197 211.63770396 87.29861177 211.67613947 75.67958504 C211.69722782 69.159194 211.71266944 62.63889428 211.71494675 56.11846733 C211.71709003 49.98953993 211.73292687 43.86080301 211.75933647 37.73193359 C211.76654171 35.48171602 211.76862453 33.23147541 211.76523399 30.98124886 C211.76134716 27.91158404 211.77576861 24.84253001 211.79476929 21.77293396 C211.78923959 20.880813 211.7837099 19.98869203 211.77801263 19.0695371 C211.83944862 13.32734277 212.66230239 8.94470988 216.68676758 4.5324707 C221.34698736 0.90380998 224.30213458 0.05278737 230.12353516 0.01586914 C231.34522903 0.0062616 232.56692291 -0.00334595 233.82563782 -0.01324463 C235.16085625 -0.01809314 236.49607686 -0.02237184 237.83129883 -0.02612305 C239.20269268 -0.03187783 240.57408652 -0.03763552 241.94548035 -0.043396 C244.821242 -0.05389727 247.69697578 -0.05974542 250.57275391 -0.06323242 C254.24800769 -0.06871076 257.92288982 -0.09272786 261.59802723 -0.12120438 C264.43170732 -0.13987984 267.26529884 -0.14503898 270.09903526 -0.1465683 C272.1097531 -0.15104721 274.12042343 -0.16967076 276.13105774 -0.1885376 C277.3622081 -0.1855365 278.59335846 -0.1825354 279.86181641 -0.17944336 C280.94086746 -0.18308899 282.01991852 -0.18673462 283.13166809 -0.19049072 C287.34270584 0.31604778 290.71866174 1.80653736 293.83129883 4.7121582 C298.02659847 10.19831927 298.33376612 13.43810286 298.32720947 20.22894287 C298.33166616 21.65380001 298.33166616 21.65380001 298.33621287 23.10744214 C298.34492912 26.31130157 298.34641067 29.51512377 298.34790039 32.71899414 C298.35252702 35.00868816 298.35755147 37.2983814 298.36294556 39.58807373 C298.3760988 45.82890257 298.38252184 52.06972063 298.38695621 58.31056118 C298.38988621 62.21539645 298.3939912 66.12022877 298.39846039 70.02506256 C298.41058125 80.85441861 298.42095567 91.6837714 298.42433548 102.513134 C298.42455505 103.20688565 298.42477461 103.90063729 298.42500083 104.61541171 C298.42521911 105.31078313 298.42543739 106.00615456 298.42566228 106.72259784 C298.42610573 108.13155286 298.4265523 109.54050787 298.42700195 110.94946289 C298.42722338 111.64834614 298.42744481 112.3472294 298.42767295 113.06729093 C298.43160454 124.34288667 298.44900287 135.61841713 298.47236148 146.89398775 C298.49619753 158.49486828 298.50828633 170.09571308 298.5097034 181.69661832 C298.51074631 188.19972822 298.51654224 194.70274643 298.53452301 201.20583344 C298.5511563 207.34209676 298.5530861 213.47820105 298.544384 219.61447906 C298.54362134 221.84992401 298.54785264 224.08537803 298.55784225 226.32080078 C298.63357737 244.34736591 297.81779712 262.70572476 292.43676758 280.05200195 C292.18000244 280.90947021 291.9232373 281.76693848 291.65869141 282.65039062 C282.83759565 311.1670698 266.08659511 337.06344845 242.18676758 355.17700195 C241.65567383 355.58305664 241.12458008 355.98911133 240.57739258 356.4074707 C223.29307932 369.53224129 204.57938417 377.85032694 183.49926758 382.98950195 C182.70568848 383.18439209 181.91210938 383.37928223 181.09448242 383.58007812 C167.86600636 386.60887855 154.5958316 387.56226574 141.06176758 387.48950195 C140.34954041 387.48767914 139.63731323 387.48585632 138.90350342 387.48397827 C95.42379156 387.29796038 54.51066895 373.0316314 23.18676758 342.17700195 C-10.5413628 307.85454329 -18.93214483 263.28868726 -18.99023438 216.96850586 C-18.99651138 214.75284726 -19.00315924 212.53718968 -19.01014709 210.3215332 C-19.03101796 203.09888418 -19.04152371 195.87623532 -19.05151367 188.65356445 C-19.05556561 186.15807459 -19.05968266 183.66258483 -19.06386375 181.16709518 C-19.08178087 170.12402383 -19.09617128 159.08095693 -19.10404016 148.03787365 C-19.10547843 146.02614427 -19.10692985 144.0144149 -19.10839844 142.00268555 C-19.10888218 141.33682211 -19.10936592 140.67095868 -19.10986432 139.98491757 C-19.11818411 129.17266071 -19.14356989 118.36051375 -19.17597912 107.54830499 C-19.20906362 96.41946541 -19.22672893 85.29066569 -19.23025674 74.16177309 C-19.2326066 67.92417724 -19.24156171 61.68675641 -19.26671791 55.44920731 C-19.28997237 49.59021345 -19.29424232 43.73151032 -19.28395653 37.8724823 C-19.28346067 35.72466948 -19.28979584 33.57684241 -19.30351257 31.42907333 C-19.32120864 28.49392175 -19.31413669 25.55981676 -19.30097961 22.62466431 C-19.31194886 21.7781624 -19.32291811 20.93166049 -19.33421975 20.05950701 C-19.27280494 14.37284308 -18.10479027 9.8881692 -14.81323242 5.17700195 C-9.89042683 1.25885057 -6.19773081 0.0579482 0 0 Z " fill="#967CE2" transform="translate(472.813232421875,422.822998046875)"/>
<path d="M0 0 C3.86719616 5.088416 4.45770279 8.91965294 4.53125 15.25390625 C3.17135658 22.28335533 -3.00798813 27.31484721 -7.87109375 32.171875 C-8.63043716 32.93550354 -9.38978058 33.69913208 -10.1721344 34.48590088 C-11.77244788 36.09193714 -13.37536124 37.69538649 -14.98071289 39.29638672 C-17.43459901 41.74710276 -19.87483528 44.21087094 -22.31445312 46.67578125 C-23.87418906 48.23778935 -25.43470953 49.79901453 -26.99609375 51.359375 C-27.72332138 52.09581238 -28.45054901 52.83224976 -29.19981384 53.59100342 C-30.23097069 54.61281708 -30.23097069 54.61281708 -31.28295898 55.65527344 C-32.18086403 56.55412262 -32.18086403 56.55412262 -33.09690857 57.47113037 C-37.42488315 60.9480568 -42.00433944 61.568844 -47.3984375 61.43359375 C-53.13785472 60.47702421 -57.22202248 56.43240622 -61.6328125 52.87890625 C-82.80600954 36.23458105 -106.93417008 31.19339517 -133.54980469 34.29736328 C-143.30939029 35.84613989 -153.04519843 39.35514615 -159.7109375 46.94921875 C-164.0029526 53.26319473 -165.65545289 60.39674643 -165 68 C-162.77454562 78.18510871 -158.30236486 84.77908409 -150 91 C-140.75705269 96.85394213 -131.29349693 101.18806269 -121.0625 105 C-119.69610164 105.51939431 -118.32997628 106.03950734 -116.96411133 106.56030273 C-109.08922263 109.54723328 -101.16466258 112.35986248 -93.1875 115.0625 C-65.12455528 124.59113963 -38.63565237 136.38157541 -17 157 C-16.10087891 157.78697266 -16.10087891 157.78697266 -15.18359375 158.58984375 C2.17675993 174.4195862 10.31160483 199.17064605 12 222 C13.51529854 256.76570233 7.01329255 285.87362707 -16.109375 312.421875 C-42.06637699 339.94020042 -82.76177991 350.92331373 -119.43896484 352.16845703 C-171.97557994 353.61165452 -220.51448484 343.74068193 -260.015625 306.890625 C-260.67046875 306.26671875 -261.3253125 305.6428125 -262 305 C-262.969375 304.113125 -263.93875 303.22625 -264.9375 302.3125 C-269.12488746 297.61755043 -270.32670836 293.57315733 -270.49609375 287.44140625 C-269.00711703 280.11376493 -263.4864642 275.04401775 -258.3828125 269.984375 C-257.28064896 268.87790619 -257.28064896 268.87790619 -256.15621948 267.74908447 C-254.60831924 266.1991516 -253.05665942 264.65296523 -251.50146484 263.11035156 C-249.12893606 260.75390938 -246.77286446 258.38186169 -244.41796875 256.0078125 C-242.90721113 254.499037 -241.39552331 252.99119221 -239.8828125 251.484375 C-238.83252365 250.42497711 -238.83252365 250.42497711 -237.76101685 249.34417725 C-233.56902029 245.21158286 -229.67184442 241.62421355 -223.65625 240.6015625 C-222.9446875 240.60929687 -222.233125 240.61703125 -221.5 240.625 C-220.7884375 240.61726563 -220.076875 240.60953125 -219.34375 240.6015625 C-214.02107806 241.50641673 -210.32434365 244.36771239 -206.5625 248.0625 C-191.91556353 261.56754637 -174.26660254 270.31640601 -155 275 C-153.48792969 275.37125 -153.48792969 275.37125 -151.9453125 275.75 C-130.21753887 279.98956559 -105.09831163 278.84578823 -86 267 C-82.0120695 264.16145807 -79.24485093 261.37502512 -77.1875 256.875 C-76.59001953 255.60269531 -76.59001953 255.60269531 -75.98046875 254.3046875 C-72.70933571 246.61556999 -72.9704765 238.06295355 -75.625 230.1875 C-83.01820568 212.53590166 -101.00526492 205.06961306 -117.67871094 198.15307617 C-125.76398845 194.8780585 -133.95518803 191.9451977 -142.19287109 189.07885742 C-176.96692443 176.97549069 -215.37916778 162.56434025 -236 130 C-236.59683594 129.09765625 -237.19367187 128.1953125 -237.80859375 127.265625 C-242.85681077 119.23190329 -245.60493244 111.10125674 -248 102 C-248.23589844 101.11183594 -248.47179687 100.22367188 -248.71484375 99.30859375 C-254.94796676 70.96380809 -250.72638535 38.56143364 -235.96875 13.55859375 C-223.31957467 -5.48391477 -206.89146134 -18.86415114 -186 -28 C-185.3704541 -28.27682617 -184.7409082 -28.55365234 -184.09228516 -28.83886719 C-125.04233949 -54.19623831 -48.25100164 -41.87182561 0 0 Z " fill="#8C73D2" transform="translate(1075,458)"/>
<path d="M0 0 C1.28175613 -0.00960754 2.56351227 -0.01921509 3.8841095 -0.02911377 C5.2856122 -0.03396219 6.68711698 -0.03824091 8.08862305 -0.04199219 C9.52727764 -0.04774654 10.96593222 -0.05350424 12.40458679 -0.05926514 C15.42158362 -0.06976757 18.43855387 -0.07561499 21.45556641 -0.07910156 C25.31241496 -0.08458062 29.16890948 -0.10859887 33.02564716 -0.13707352 C35.9982962 -0.15574336 38.97086076 -0.16090783 41.94356346 -0.16243744 C43.36486939 -0.16545539 44.78617413 -0.17345492 46.20742226 -0.18662262 C48.20070986 -0.20376994 50.19414403 -0.19994555 52.1875 -0.1953125 C53.31984573 -0.19895813 54.45219147 -0.20260376 55.61885071 -0.20635986 C60.71139642 0.3841982 63.73193962 1.82978263 66.93442225 5.86768115 C68.99811814 9.53478539 69.28564761 11.54031719 69.28003311 15.70908165 C69.28799731 17.01685109 69.2959615 18.32462054 69.30416703 19.67201936 C69.29275611 21.11642195 69.28097375 22.56082164 69.26885986 24.00521851 C69.27060456 25.54482546 69.2741076 27.08443125 69.27921653 28.62403071 C69.28816043 32.85201237 69.27216106 37.0795887 69.25210428 41.30751872 C69.23483519 45.86778289 69.2406756 50.4280241 69.24371338 54.98831177 C69.24581108 62.88839511 69.23325794 70.78834634 69.21076202 78.68839645 C69.17825791 90.11052945 69.16783663 101.53259855 69.16281006 112.95477279 C69.15405492 131.48632354 69.12743337 150.01780388 69.08959961 168.54931641 C69.05288521 186.55126595 69.02457064 204.55319636 69.00756836 222.55517578 C69.00599202 224.2195548 69.00599202 224.2195548 69.00438383 225.91755764 C68.99916369 231.48400822 68.99410886 237.05045894 68.98913622 242.61690974 C68.94766735 288.79837997 68.87392579 334.97971996 68.7878418 381.16113281 C40.7378418 381.16113281 12.6878418 381.16113281 -16.2121582 381.16113281 C-16.27826189 333.85563667 -16.33366692 286.550184 -16.36535419 239.24465491 C-16.36910643 233.66318457 -16.37298939 228.08171433 -16.37695312 222.50024414 C-16.37774006 221.389047 -16.37852699 220.27784985 -16.37933777 219.13298007 C-16.39240117 201.1270665 -16.41606015 183.12118158 -16.44361659 165.11528502 C-16.47164479 146.64747 -16.48832898 128.17967002 -16.49442369 109.71183461 C-16.4985455 98.31092482 -16.51157635 86.91009601 -16.5359076 75.50921115 C-16.55173289 67.69729083 -16.55656585 59.88541255 -16.55266234 52.07347737 C-16.55073578 47.56253378 -16.55374421 43.05173199 -16.56977463 38.54081345 C-16.58433542 34.41341631 -16.58513555 30.2862568 -16.57485489 26.1588489 C-16.5735836 24.6634757 -16.57742155 23.16808788 -16.58680775 21.6727436 C-16.59880525 19.64387498 -16.5905826 17.61491668 -16.58130169 15.58603382 C-16.58301043 13.89381017 -16.58301043 13.89381017 -16.58475369 12.16740018 C-16.05319988 7.87858584 -14.44016031 5.23563465 -11.2121582 2.41113281 C-7.46238379 0.0675238 -4.32211914 0.02611727 0 0 Z " fill="#7C65BA" transform="translate(1486.212158203125,422.8388671875)"/>
<path d="M0 0 C-1.40509099 3.18259851 -3.06921342 5.31348466 -5.53173828 7.75878906 C-6.25233429 8.47923401 -6.9729303 9.19967896 -7.71536255 9.94195557 C-8.49249603 10.70876648 -9.26962952 11.47557739 -10.0703125 12.265625 C-10.86654022 13.05902283 -11.66276794 13.85242065 -12.48312378 14.66986084 C-15.02575948 17.20130703 -17.57526348 19.72570803 -20.125 22.25 C-21.85071753 23.96568617 -23.57598355 25.68182662 -25.30078125 27.3984375 C-29.52863032 31.60424248 -33.76213869 35.80428507 -38 40 C-38 32.0857269 -25.58393608 23.41183141 -20.17382812 17.98828125 C-19.19265015 17.00722412 -19.19265015 17.00722412 -18.19165039 16.00634766 C-16.16979898 13.98227957 -14.15611673 11.95030266 -12.14257812 9.91796875 C-10.8598634 8.63232502 -9.57667758 7.34715111 -8.29296875 6.0625 C-7.6909111 5.45325684 -7.08885345 4.84401367 -6.46855164 4.21630859 C-2.22886078 0 -2.22886078 0 0 0 Z " fill="#69569E" transform="translate(845,702)"/>
<path d="M0 0 C0.66 0.33 1.32 0.66 2 1 C-2.29 5.29 -6.58 9.58 -11 14 C-11.66 13.67 -12.32 13.34 -13 13 C-11.21188257 11.01752198 -9.41974481 9.03896272 -7.625 7.0625 C-7.11710938 6.49853516 -6.60921875 5.93457031 -6.0859375 5.35351562 C-2.2265625 1.11328125 -2.2265625 1.11328125 0 0 Z " fill="#7F68C0" transform="translate(860,448)"/>
</svg>
