<?xml version="1.0" encoding="UTF-8"?>
<svg id="Calque_2" data-name="Calque 2" xmlns="http://www.w3.org/2000/svg" xmlns:xlink="http://www.w3.org/1999/xlink" viewBox="0 0 512 512">
  <defs>
    <style>
      .cls-1, .cls-2, .cls-3, .cls-4, .cls-5 {
        fill: none;
      }

      .cls-2 {
        clip-path: url(#clippath);
      }

      .cls-2, .cls-3, .cls-4, .cls-5 {
        clip-rule: evenodd;
      }

      .cls-6 {
        fill: #fff;
      }

      .cls-3 {
        clip-path: url(#clippath-6);
      }

      .cls-4 {
        clip-path: url(#clippath-2);
      }

      .cls-5 {
        clip-path: url(#clippath-4);
      }

      .cls-7 {
        clip-path: url(#clippath-1);
      }

      .cls-8 {
        clip-path: url(#clippath-3);
      }

      .cls-9 {
        clip-path: url(#clippath-7);
      }

      .cls-10 {
        clip-path: url(#clippath-5);
      }
    </style>
    <clipPath id="clippath">
      <rect class="cls-1" width="512" height="512"/>
    </clipPath>
    <clipPath id="clippath-1">
      <path class="cls-2" d="m256,512c141.38,0,256-114.62,256-256S397.38,0,256,0,0,114.62,0,256s114.62,256,256,256h0Z"/>
    </clipPath>
    <clipPath id="clippath-2">
      <rect class="cls-1" width="512" height="512"/>
    </clipPath>
    <clipPath id="clippath-3">
      <path class="cls-4" d="m324.86,238.4c-18.35,0-27.73,14.44-27.73,36.2,0,20.57,10.14,36,27.73,36,19.89,0,27.35-18.2,27.35-36-.01-18.59-9.38-36.2-27.35-36.2m-48.75-54h21.8v52.22h.39c5.93-9.89,18.36-16.02,29.45-16.02,31.16,0,46.27,24.53,46.27,54.4,0,27.48-13.38,53.4-42.64,53.4-13.38,0-27.73-3.35-34.23-16.81h-.38v14.05h-20.65v-141.24h0"/>
    </clipPath>
    <clipPath id="clippath-4">
      <rect class="cls-1" width="512" height="512"/>
    </clipPath>
    <clipPath id="clippath-5">
      <path class="cls-5" d="m454.39,257.6c-1.72-12.46-10.51-19.19-22.56-19.19-11.29,0-27.15,6.14-27.15,37.19,0,17.01,7.26,35.02,26.2,35.02,12.62,0,21.41-8.71,23.52-23.35h21.8c-4.02,26.51-19.88,41.14-45.32,41.14-30.98,0-47.99-22.74-47.99-52.81s16.25-54.99,48.76-54.99c22.94,0,42.45,11.87,44.55,36.99h-21.8"/>
    </clipPath>
    <clipPath id="clippath-6">
      <rect class="cls-1" width="512" height="512"/>
    </clipPath>
    <clipPath id="clippath-7">
      <polyline class="cls-3" points="199.9 325.34 36.41 325.34 112.75 184.41 276.24 184.41 199.9 325.34"/>
    </clipPath>
  </defs>
  <g id="Calque_1-2" data-name="Calque 1">
    <g>
      <g class="cls-7">
        <rect x="-5" y="-5" width="522" height="522"/>
      </g>
      <g class="cls-8">
        <rect class="cls-6" x="271.1" y="179.41" width="107.9" height="154"/>
      </g>
      <g class="cls-10">
        <rect class="cls-6" x="377.88" y="215.61" width="103.31" height="117.8"/>
      </g>
      <g class="cls-9">
        <rect class="cls-6" x="31.41" y="179.41" width="249.83" height="150.93"/>
      </g>
    </g>
  </g>
</svg>