<?xml version="1.0" encoding="UTF-8"?>
<svg id="Layer_1" data-name="Layer 1" xmlns="http://www.w3.org/2000/svg" xmlns:xlink="http://www.w3.org/1999/xlink" viewBox="0 0 234.89 337">
  <defs>
    <style>
      .cls-1 {
        fill: none;
      }

      .cls-2 {
        fill: #010101;
      }

      .cls-3 {
        clip-path: url(#clippath);
      }
    </style>
    <clipPath id="clippath">
      <rect class="cls-1" x="0" y="0" width="234.89" height="257.26"/>
    </clipPath>
  </defs>
  <path class="cls-2" d="M0,307.55c0-1.38,1.02-2.31,2.62-2.31h7.64c6.93,0,11.64,3.82,11.64,9.42s-4.66,9.59-11.64,9.59h-1.07c-2.66,0-4.04,1.38-4.04,3.6v6.26c0,1.78-1.02,2.89-2.58,2.89S0,335.89,0,334.11v-26.56ZM5.15,315.5c0,2.8,1.42,4.13,4.13,4.13h.67c3.82,0,6.62-1.55,6.62-4.97s-2.8-4.98-6.62-4.98h-.67c-2.71,0-4.13,1.33-4.13,4.13v1.69ZM21.9,334.56c0,1.47,1.02,2.44,2.58,2.44,1.02,0,1.95-.67,2.49-2.04l.93-2.49c.76-2,2.09-2.93,3.55-2.93h8.44c1.47,0,2.8.93,3.55,2.93l.93,2.49c.53,1.38,1.47,2.04,2.49,2.04,1.55,0,2.58-.98,2.58-2.44,0-.4-.09-.89-.27-1.38l-10.08-26.2c-.62-1.6-2.04-2.4-3.42-2.4s-2.8.8-3.42,2.4l-10.08,26.2c-.18.49-.27.98-.27,1.38ZM31.71,322.65c0-.49.13-.93.36-1.6l1.91-5.29c.36-1.02.98-1.51,1.69-1.51s1.33.49,1.69,1.51l1.91,5.29c.22.67.36,1.11.36,1.6,0,1.33-.76,2.27-2.75,2.27h-2.4c-2,0-2.75-.93-2.75-2.27ZM47.75,307.64c0-1.42,1.02-2.4,2.67-2.4h20.43c1.64,0,2.67.98,2.67,2.4s-1.02,2.4-2.67,2.4h-3.42c-2.71,0-4.18,1.38-4.18,4.53v19.5c0,1.82-1.02,2.93-2.62,2.93s-2.62-1.11-2.62-2.93v-19.5c0-3.15-1.47-4.53-4.18-4.53h-3.42c-1.64,0-2.67-.98-2.67-2.4ZM78.31,334.11c0,1.78,1.02,2.89,2.58,2.89s2.58-1.11,2.58-2.89v-7.06c0-2,1.15-2.84,2.58-2.84h.36c.93,0,1.87.58,2.44,1.42l6.75,9.9c.62.93,1.42,1.47,2.44,1.47,1.33,0,2.4-1.11,2.4-2.44,0-.53-.18-1.11-.58-1.69l-4.49-6.31c-.53-.76-.75-1.38-.75-1.91,0-1.11.98-1.91,2.13-2.75,2.09-1.55,4.35-3.6,4.35-7.51,0-5.46-4.26-9.15-11.28-9.15h-8.93c-1.6,0-2.58.93-2.58,2.31v26.56ZM83.46,315.1v-1.33c0-2.89,1.51-4.09,3.82-4.09h2.22c3.82,0,6.26,1.42,6.26,4.71s-2.58,4.8-6.4,4.8h-2.09c-2.31,0-3.82-1.2-3.82-4.09ZM107.67,334.02v-26.47c0-1.38.98-2.31,2.58-2.31h16.79c1.6,0,2.58.93,2.58,2.31s-.98,2.31-2.58,2.31h-10.62c-2.09,0-3.6,1.24-3.6,3.6v.98c0,2.35,1.51,3.6,3.6,3.6h8.22c1.6,0,2.58.93,2.58,2.31s-.98,2.31-2.58,2.31h-7.91c-2.09,0-3.91,1.29-3.91,3.91v1.24c0,2.62,1.82,3.91,3.91,3.91h10.31c1.6,0,2.58.93,2.58,2.31s-.98,2.31-2.58,2.31h-16.79c-1.6,0-2.58-.93-2.58-2.31ZM132.67,320.79c0-9.59,7.2-16.21,15.63-16.21s15.63,6.62,15.63,16.21-7.2,16.21-15.63,16.21-15.63-6.62-15.63-16.21ZM138.54,320.79c0,6.75,4,11.06,9.77,11.06s9.77-4.31,9.77-11.06-4-11.06-9.77-11.06-9.77,4.26-9.77,11.06ZM170.12,334.11c0,1.78,1.02,2.89,2.58,2.89s2.58-1.11,2.58-2.89v-13.59c0-1.64.98-2.44,2-2.44.8,0,1.46.44,1.95,1.24l8.53,14.26c1.15,1.95,2.22,3.42,4.4,3.42s3.6-1.51,3.6-3.95v-25.58c0-1.78-1.02-2.89-2.58-2.89s-2.58,1.11-2.58,2.89v13.59c0,1.64-.98,2.44-2,2.44-.8,0-1.47-.44-1.95-1.24l-8.53-14.26c-1.15-1.95-2.22-3.42-4.4-3.42s-3.6,1.51-3.6,3.95v25.58Z"/>
  <g class="cls-3">
    <path class="cls-2" d="M234.89,77.29c-.05-32.85-25.63-59.77-55.64-69.48C141.97-4.26,92.82-2.51,57.22,14.28,14.08,34.64.53,79.23.03,123.7c-.41,36.56,3.23,132.87,57.55,133.55,40.36.51,46.37-51.49,65.05-76.54,13.29-17.82,30.39-22.85,51.45-28.07,36.2-8.96,60.86-37.52,60.81-75.36Z"/>
  </g>
</svg>